<?xml version="1.0" encoding="utf-8"?>
<!-- Generator: Adobe Illustrator 15.0.0, SVG Export Plug-In . SVG Version: 6.00 Build 0)  -->
<!DOCTYPE svg PUBLIC "-//W3C//DTD SVG 1.1//EN" "http://www.w3.org/Graphics/SVG/1.1/DTD/svg11.dtd">
<svg version="1.1" id="Layer_1" xmlns="http://www.w3.org/2000/svg" xmlns:xlink="http://www.w3.org/1999/xlink" x="0px" y="0px"
	 width="4003px" height="343.125px" viewBox="0 0 4003 343.125" enable-background="new 0 0 4003 343.125" xml:space="preserve">
<g id="gQxhjA_1_">
	<g id="XMLID_2_">
	</g>
</g>
<rect x="-116.999" y="250.787" fill="#EDECE9" width="4435.999" height="667.908"/>
<g id="G84vHi_1_">
	<g id="XMLID_3_">
		<g>
			<path fill="#EDECE9" d="M4009.002,223.354c-0.973,22.414,1.94,48.715-1.463,68.694c-1459.211-1.94-2926.675,3.896-4383.324-2.924
				c0-12.181,0-24.356,0-36.537c337.547-65.321,684.273-123.932,1046.5-163.703c451.233-49.537,926.676-89.575,1432.366-77.46
				C2785.479,27.767,3414.441,117.694,4009.002,223.354z"/>
		</g>
	</g>
</g>
<g id="fhXEyS_1_">
	<g id="XMLID_4_">
		<g>
			<path fill="#D6D4D0" d="M4017.181,250.787c-0.577,14.225-1.153,28.449-1.729,42.686
				c-370.184-79.883-752.406-158.646-1168.71-192.226c-105.251-8.49-211.636-18.118-317.696-22.545
				c-105.481-4.395-211.729-5.824-318.198-10.143c-156.497-6.347-316.479-4.19-473.09,0.123c-25.28,0.694-51.736,1.36-77.33,2.38
				c-25.554,1.021-51.988,4.518-75.959,2.435c-11.607-1.002,6.692-0.685,11.069-0.933c395.288-21.797,807.438-26.092,1234.197,5.92
				c207.518,15.574,410.271,39.187,609.656,67.491c97.346,13.812,195.017,29.876,290.414,49.02
				C3826.699,214.427,3922.825,229.484,4017.181,250.787z"/>
		</g>
	</g>
</g>
</svg>
