<?xml version="1.0" encoding="utf-8"?>
<!-- Generator: Adobe Illustrator 15.0.0, SVG Export Plug-In . SVG Version: 6.00 Build 0)  -->
<!DOCTYPE svg PUBLIC "-//W3C//DTD SVG 1.1//EN" "http://www.w3.org/Graphics/SVG/1.1/DTD/svg11.dtd">
<svg version="1.1" id="Layer_1" xmlns="http://www.w3.org/2000/svg" xmlns:xlink="http://www.w3.org/1999/xlink" x="0px" y="0px"
	 width="4003px" height="343.125px" viewBox="0 0 4003 343.125" enable-background="new 0 0 4003 343.125" xml:space="preserve">
<g id="gQxhjA_1_">
	<g id="XMLID_2_">
	</g>
</g>
<rect x="-116.999" y="250.787" fill="#FFFFFF" width="4436" height="667.908"/>
<g id="G84vHi_1_">
	<g id="XMLID_3_">
		<g>
			<path fill="#FFFFFF" d="M4009.002,223.353c-0.972,22.415,1.941,48.715-1.462,68.695
				c-1459.212-1.941-2926.675,3.896-4383.325-2.924c0-12.18,0-24.357,0-36.537c337.547-65.322,684.274-123.932,1046.5-163.703
				c451.234-49.537,926.676-89.575,1432.367-77.46C2785.479,27.767,3414.441,117.694,4009.002,223.353z"/>
		</g>
	</g>
</g>
<g id="fhXEyS_1_">
	<g id="XMLID_4_">
		<g>
			<path fill="#EAE8E8" d="M4017.181,250.787c-0.577,14.225-1.153,28.449-1.73,42.685
				c-370.183-79.882-752.407-158.647-1168.71-192.225c-105.251-8.49-211.635-18.118-317.696-22.545
				c-105.483-4.395-211.728-5.824-318.199-10.143c-156.497-6.347-316.479-4.19-473.09,0.123c-25.28,0.694-51.737,1.36-77.33,2.38
				c-25.554,1.021-51.989,4.518-75.959,2.435c-11.608-1.002,6.693-0.685,11.07-0.933c395.288-21.797,807.437-26.092,1234.198,5.92
				c207.516,15.574,410.271,39.187,609.656,67.491c97.346,13.812,195.016,29.877,290.414,49.02
				C3826.7,214.427,3922.826,229.484,4017.181,250.787z"/>
		</g>
	</g>
</g>
</svg>
